<?xml version="1.0" encoding="UTF-8"?><svg id="Layer_2" xmlns="http://www.w3.org/2000/svg" width="360.95" height="96" viewBox="0 0 360.95 96"><g id="Layer_1-2"><g><path d="m8.98,96c-2.72,0-4.82-.48-6.31-1.45-1.48-.97-2.37-2.18-2.68-3.63.67-3.21,2.6-4.81,5.81-4.81,1.27,0,2.42.3,3.45.91,1.03.6,2.03,1.6,2.99,2.99l2.81,3.63v.54h-2.27v-.82c.79-.54,1.51-1.15,2.18-1.82.66-.67,1.24-1.54,1.72-2.63.66-1.63,1.13-3.77,1.41-6.4.27-2.63.41-5.67.41-9.12v-28.95c0-3.02-.02-5.75-.05-8.17-.03-2.42-.11-4.72-.23-6.9l-7.53-.54v-2.27l16.79-4.26,1.45.91-.36,13.25v26.68c0,5.14-.15,9.39-.45,12.75-.3,3.36-.91,6.17-1.81,8.44-.91,2.27-2.27,4.28-4.08,6.03-2.06,2.06-4.19,3.51-6.4,4.36-2.21.85-4.49,1.27-6.85,1.27ZM23.05,11.98c-1.69,0-3.16-.56-4.4-1.68-1.24-1.12-1.86-2.56-1.86-4.31s.62-3.19,1.86-4.31c1.24-1.12,2.71-1.68,4.4-1.68s3.16.56,4.4,1.68c1.24,1.12,1.86,2.56,1.86,4.31s-.62,3.19-1.86,4.31c-1.24,1.12-2.71,1.68-4.4,1.68Z" fill="#231f20"/><path d="m65.15,72.86c-4.42,0-8.42-1-12.02-2.99-3.6-2-6.46-4.9-8.57-8.71-2.12-3.81-3.18-8.41-3.18-13.79s1.1-9.95,3.31-13.7c2.21-3.75,5.13-6.61,8.76-8.57,3.63-1.97,7.53-2.95,11.71-2.95s8.17.97,11.8,2.9c3.63,1.94,6.55,4.78,8.76,8.53,2.21,3.75,3.31,8.35,3.31,13.79s-1.06,10.06-3.18,13.84c-2.12,3.78-4.98,6.67-8.57,8.67-3.6,2-7.64,2.99-12.11,2.99Zm0-2.99c4.05,0,7.21-1.89,9.48-5.67,2.27-3.78,3.4-9.33,3.4-16.65s-1.13-12.96-3.4-16.74c-2.27-3.78-5.43-5.67-9.48-5.67s-7.12,1.89-9.39,5.67c-2.27,3.78-3.4,9.36-3.4,16.74s1.13,12.87,3.4,16.65c2.27,3.78,5.4,5.67,9.39,5.67Z" fill="#231f20"/><path d="m116.33,72.86c-4.42,0-7.85-1.38-10.3-4.13-2.45-2.75-3.65-7.52-3.58-14.29l.27-27.68,2.36,1.81-9.44-1.45v-2.45l16.51-1.91,1,1-.45,12.7v18.51c0,4.36.74,7.4,2.22,9.12,1.48,1.72,3.55,2.59,6.22,2.59s5.22-.8,7.67-2.4c2.45-1.6,4.64-3.73,6.58-6.4l2.63,4.17h-3.54c-2.3,3.15-4.95,5.73-7.94,7.76-2.99,2.03-6.4,3.04-10.21,3.04Zm17.51-.45l-.36-11.07v-.18l.18-33.03-6.81-1v-2.18l16.24-2.18.91,1-.36,12.7v31.76l6.53.63v2.63l-16.33.91Z" fill="#231f20"/><path d="m163.78,71.41c.06-1.51.1-3.52.14-6.03.03-2.51.06-5.13.09-7.85.03-2.72.05-5.11.05-7.17v-6.26c0-3.08-.02-5.73-.05-7.94-.03-2.21-.11-4.4-.23-6.58l-7.53-.54v-2.27l16.24-4.45,1.18.82.64,12.88v14.34c0,2.06.01,4.45.05,7.17.03,2.72.06,5.34.09,7.85.03,2.51.08,4.52.14,6.03h-10.8Zm-6.9,0v-2.63l9.89-1.09h6.08l10.16,1.09v2.63h-26.13Zm17.33-29.04l-2.54-5.17h2.09c.91-3.14,2.18-5.84,3.81-8.08,1.63-2.24,3.45-3.96,5.44-5.17,2-1.21,4.02-1.81,6.08-1.81,1.94,0,3.61.41,5.04,1.23,1.42.82,2.34,2.16,2.77,4.04,0,1.76-.44,3.19-1.32,4.31-.88,1.12-2.25,1.68-4.13,1.68-1.33,0-2.51-.36-3.54-1.09-1.03-.73-2.09-1.75-3.18-3.08l-2.09-2.27,3.63.36c-2.84,1.15-5.22,2.9-7.12,5.26s-3.55,5.63-4.94,9.8Z" fill="#231f20"/><path d="m207.7,71.41c.06-1.51.1-3.52.14-6.03.03-2.51.06-5.13.09-7.85.03-2.72.05-5.11.05-7.17v-6.26c0-3.08-.02-5.73-.05-7.94-.03-2.21-.11-4.4-.23-6.58l-7.53-.54v-2.27l16.24-4.45,1.18.82.64,10.43v16.79c0,2.06.01,4.45.05,7.17.03,2.72.06,5.34.09,7.85.03,2.51.08,4.52.14,6.03h-10.8Zm-6.9,0v-2.63l9.71-1h4.54l9.53,1v2.63h-23.77Zm37.93,0c.06-1.51.11-3.51.14-5.99.03-2.48.06-5.08.09-7.8.03-2.72.05-5.14.05-7.26v-11.52c0-4.11-.65-6.99-1.95-8.62-1.3-1.63-3.16-2.45-5.58-2.45-1.94,0-4.28.7-7.03,2.09-2.75,1.39-5.61,3.78-8.57,7.17l-.64-3.45h1.27c3.33-4.23,6.56-7.2,9.71-8.89,3.15-1.69,6.35-2.54,9.62-2.54,4.05,0,7.29,1.36,9.71,4.08,2.42,2.72,3.63,7.11,3.63,13.16v10.98c0,2.12.02,4.54.05,7.26.03,2.72.06,5.32.09,7.8.03,2.48.07,4.48.14,5.99h-10.71Zm-6.81,0v-2.63l9.62-1h4.54l9.71,1v2.63h-23.87Z" fill="#231f20"/><path d="m286.73,72.86c-4.72,0-8.91-.97-12.57-2.9-3.66-1.94-6.53-4.79-8.62-8.57-2.09-3.78-3.13-8.42-3.13-13.93s1.1-9.78,3.31-13.57c2.21-3.78,5.11-6.68,8.71-8.71,3.6-2.03,7.45-3.04,11.57-3.04s7.83.86,10.8,2.59c2.96,1.72,5.2,4.05,6.71,6.99,1.51,2.93,2.27,6.25,2.27,9.94,0,2.18-.18,4.02-.54,5.53h-38.29v-2.99h24.59c1.75,0,2.95-.48,3.58-1.45.63-.97.95-2.57.95-4.81,0-3.93-.92-7.05-2.77-9.35-1.85-2.3-4.4-3.45-7.67-3.45-2.3,0-4.39.79-6.26,2.36-1.88,1.57-3.37,3.93-4.49,7.08-1.12,3.15-1.68,7.05-1.68,11.71,0,4.96.71,9.01,2.13,12.16,1.42,3.15,3.4,5.46,5.94,6.94,2.54,1.48,5.41,2.22,8.62,2.22s5.96-.59,8.26-1.77c2.3-1.18,4.29-2.86,5.99-5.04l1.54,1.27c-1.94,3.39-4.51,6.03-7.71,7.94-3.21,1.91-6.96,2.86-11.25,2.86Z" fill="#231f20"/><path d="m317.67,96c-2.24,0-4.25-.51-6.03-1.54-1.79-1.03-2.74-2.42-2.86-4.17.24-1.57.97-2.72,2.18-3.45,1.21-.73,2.54-1.09,3.99-1.09s2.77.38,3.95,1.13c1.18.76,2.31,1.71,3.4,2.86l2.63,2.99-2.99,1.72-1.81-1.54c2.96-1.03,5.52-2.95,7.67-5.76,2.15-2.81,4.13-6.52,5.94-11.12l2.63-6.53.63-1.72,7.99-22.05,7.53-22.14h3.63l-19.42,51.81c-1.88,5.02-3.81,9.04-5.81,12.07-2,3.02-4.08,5.2-6.26,6.53-2.18,1.33-4.51,2-6.99,2Zm-8.89-69.87v-2.54h24.41v2.54l-9.25,1h-6.08l-9.07-1Zm26.04,50.99l-21.96-53.54h11.16l14.88,40.47.54,1.09-4.63,11.98Zm7.71-50.99v-2.54h18.42v2.54l-7.35.91h-1.54l-9.53-.91Z" fill="#231f20"/></g></g></svg>